<?xml version="1.0" encoding="utf-8"?>
<svg viewBox="268.9712 353.319 18 20" height="38" width="38"  xmlns="http://www.w3.org/2000/svg">
  <defs>
    <clipPath id="clip15_657_9099">
      <rect width="24" height="24" fill="white" transform="translate(48.4208 456.577)"/>
    </clipPath>
  </defs>
  <g clip-path="url(#clip15_657_9099)" transform="matrix(1, 0, 0, 1, 217.55043029785156, -105.25802612304688)">
    <path d="M57.4208 467.577H55.4208V469.577H57.4208V467.577ZM61.4208 467.577H59.4208V469.577H61.4208V467.577ZM65.4208 467.577H63.4208V469.577H65.4208V467.577ZM67.4208 460.577H66.4208V458.577H64.4208V460.577H56.4208V458.577H54.4208V460.577H53.4208C52.3108 460.577 51.4308 461.477 51.4308 462.577L51.4208 476.577C51.4208 477.677 52.3108 478.577 53.4208 478.577H67.4208C68.5208 478.577 69.4208 477.677 69.4208 476.577V462.577C69.4208 461.477 68.5208 460.577 67.4208 460.577ZM67.4208 476.577H53.4208V465.577H67.4208V476.577Z" fill="#49454F"/>
  </g>
</svg>