<?xml version="1.0" encoding="utf-8"?>
<svg viewBox="5.809 6.876 26.165 21.468" height="44" width="44" xmlns="http://www.w3.org/2000/svg">
  <path d="M 14.564 28.344 C 14.027 28.344 13.558 28.143 13.155 27.74 C 12.753 27.338 12.551 26.868 12.551 26.332 L 12.551 22.977 L 16.711 22.977 L 16.711 18.717 C 15.861 18.784 15.011 18.667 14.161 18.365 C 13.312 18.063 12.551 17.588 11.88 16.939 L 11.88 14.993 L 10.203 14.993 L 5.809 10.599 C 6.614 9.839 7.575 9.218 8.694 8.737 C 9.812 8.257 10.952 8.016 12.115 8.016 C 12.786 8.016 13.552 8.122 14.413 8.335 C 15.274 8.547 16.04 8.888 16.711 9.358 L 16.711 6.876 L 31.974 6.876 L 31.974 24.822 C 31.974 25.806 31.633 26.639 30.951 27.321 C 30.269 28.003 29.436 28.344 28.452 28.344 L 14.564 28.344 Z M 18.724 22.977 L 26.942 22.977 L 26.942 24.822 C 26.942 25.269 27.082 25.633 27.361 25.912 C 27.641 26.192 28.004 26.332 28.452 26.332 C 28.899 26.332 29.262 26.192 29.542 25.912 C 29.821 25.633 29.961 25.269 29.961 24.822 L 29.961 8.888 L 18.724 8.888 L 18.724 10.8 L 26.808 18.885 L 26.808 20.327 L 25.365 20.327 L 21.139 16.1 L 20.569 16.771 C 20.278 17.107 19.987 17.364 19.696 17.543 C 19.406 17.722 19.081 17.889 18.724 18.046 L 18.724 22.977 Z M 11.109 12.981 L 13.893 12.981 L 13.893 15.966 C 14.273 16.212 14.648 16.397 15.017 16.52 C 15.386 16.643 15.76 16.704 16.141 16.704 C 16.7 16.704 17.27 16.553 17.851 16.251 C 18.433 15.949 18.858 15.642 19.126 15.329 L 19.696 14.658 L 17.382 12.343 C 16.666 11.628 15.861 11.063 14.967 10.649 C 14.072 10.236 13.122 10.029 12.115 10.029 C 11.511 10.029 10.964 10.101 10.472 10.247 C 9.98 10.392 9.476 10.588 8.962 10.834 L 11.109 12.981 Z M 24.929 24.99 L 14.564 24.99 L 14.564 26.332 L 25.399 26.332 C 25.265 26.197 25.153 26.013 25.064 25.778 C 24.974 25.543 24.929 25.281 24.929 24.99 Z" fill="#49454F"/>
</svg>